<svg width="36" height="30" viewBox="0 0 36 30" fill="none" xmlns="http://www.w3.org/2000/svg">
<path d="M17.9193 1.15723C18.3155 1.15718 18.7153 1.17058 19.1175 1.19824C27.5153 1.77643 34.2932 8.61829 34.8079 17.0225C35.0455 20.9361 33.8862 24.5856 31.7581 27.749C31.1038 28.7217 29.8083 28.9441 28.7337 28.4756C25.406 27.0247 21.6626 25.8716 17.9193 25.9209C14.1759 25.8716 10.4325 27.0248 7.10478 28.4756C6.03016 28.9441 4.73473 28.7217 4.08036 27.749C1.95227 24.5856 0.793031 20.9361 1.03056 17.0225C1.54532 8.61824 8.32308 1.77635 16.721 1.19824C17.1232 1.17058 17.5229 1.15718 17.9193 1.15723Z" fill="#e2e2e3"/>
</svg>
